<svg width="197" height="30" viewBox="0 0 197 30" fill="none" xmlns="http://www.w3.org/2000/svg">
<path d="M24.5957 1.03443L15.9535 17.7963V25.6022H9.08844V17.7963L0.446169 1.03443H8.25209L12.5732 10.513L16.8944 1.03443H24.5957ZM33.3834 1.03443V15.2872C33.3834 16.6114 33.6854 17.6336 34.2894 18.3538C34.9167 19.074 35.8576 19.4341 37.1121 19.4341C38.3666 19.4341 39.3075 19.074 39.9348 18.3538C40.5853 17.6104 40.9105 16.5882 40.9105 15.2872V1.03443H47.7407V15.2872C47.7407 17.5407 47.2645 19.4689 46.3119 21.072C45.3594 22.6517 44.0585 23.8482 42.409 24.6613C40.7828 25.4512 38.9707 25.8461 36.9727 25.8461C34.9748 25.8461 33.1859 25.4512 31.6061 24.6613C30.0496 23.8482 28.8183 22.6517 27.9123 21.072C27.0295 19.4922 26.5881 17.5639 26.5881 15.2872V1.03443H33.3834ZM80.1811 1.03443V25.6022H73.3509V12.0464L68.7161 25.6022H63.0011L58.3315 11.9418V25.6022H51.5013V1.03443H59.7602L65.9283 16.9948L71.957 1.03443H80.1811Z" fill="#FF642F"/>
<path d="M100.901 29.7142L98.1824 25.637C97.4158 25.7764 96.6375 25.8461 95.8476 25.8461C93.5477 25.8461 91.4336 25.3118 89.5053 24.2431C87.5771 23.1512 86.0438 21.6527 84.9054 19.7477C83.7903 17.8195 83.2327 15.6473 83.2327 13.2312C83.2327 10.8151 83.7903 8.6545 84.9054 6.74948C86.0438 4.82123 87.5771 3.32277 89.5053 2.2541C91.4336 1.18544 93.5477 0.651103 95.8476 0.651103C98.1708 0.651103 100.285 1.18544 102.19 2.2541C104.118 3.32277 105.64 4.82123 106.755 6.74948C107.87 8.6545 108.428 10.8151 108.428 13.2312C108.428 15.2524 108.021 17.1225 107.208 18.8417C106.395 20.5376 105.28 21.9548 103.863 23.0931L109.055 29.7142H100.901ZM90.2023 13.2312C90.2023 15.1594 90.7018 16.6927 91.7007 17.8311C92.6997 18.9462 94.082 19.5038 95.8476 19.5038C97.59 19.5038 98.9607 18.9346 99.9597 17.7963C100.982 16.6579 101.493 15.1362 101.493 13.2312C101.493 11.2797 100.982 9.7464 99.9597 8.63126C98.9607 7.4929 97.59 6.92372 95.8476 6.92372C94.082 6.92372 92.6997 7.4929 91.7007 8.63126C90.7018 9.7464 90.2023 11.2797 90.2023 13.2312ZM118.223 1.03443V15.2872C118.223 16.6114 118.525 17.6336 119.129 18.3538C119.756 19.074 120.697 19.4341 121.952 19.4341C123.206 19.4341 124.147 19.074 124.774 18.3538C125.425 17.6104 125.75 16.5882 125.75 15.2872V1.03443H132.58V15.2872C132.58 17.5407 132.104 19.4689 131.152 21.072C130.199 22.6517 128.898 23.8482 127.249 24.6613C125.622 25.4512 123.81 25.8461 121.812 25.8461C119.814 25.8461 118.025 25.4512 116.446 24.6613C114.889 23.8482 113.658 22.6517 112.752 21.072C111.869 19.4922 111.428 17.5639 111.428 15.2872V1.03443H118.223ZM143.171 1.03443V25.6022H136.341V1.03443H143.171ZM146.224 13.266C146.224 10.8499 146.724 8.70096 147.723 6.81917C148.745 4.91416 150.185 3.43893 152.044 2.3935C153.902 1.32483 156.04 0.790495 158.456 0.790495C161.523 0.790495 164.101 1.61523 166.192 3.26469C168.283 4.89093 169.63 7.10957 170.234 9.92063H162.882C162.44 8.99136 161.825 8.28278 161.035 7.79491C160.268 7.30704 159.374 7.06311 158.351 7.06311C156.772 7.06311 155.505 7.63229 154.553 8.77066C153.624 9.88579 153.159 11.3842 153.159 13.266C153.159 15.171 153.624 16.6927 154.553 17.8311C155.505 18.9462 156.772 19.5038 158.351 19.5038C159.374 19.5038 160.268 19.2599 161.035 18.772C161.825 18.2841 162.44 17.5755 162.882 16.6463H170.234C169.63 19.4573 168.283 21.6876 166.192 23.3371C164.101 24.9633 161.523 25.7764 158.456 25.7764C156.04 25.7764 153.902 25.2537 152.044 24.2083C150.185 23.1396 148.745 21.6644 147.723 19.7826C146.724 17.8776 146.224 15.7054 146.224 13.266ZM188 25.6022L180.299 14.8342V25.6022H173.469V1.03443H180.299V11.6282L187.931 1.03443H195.806L186.781 12.9524L196.259 25.6022H188Z" fill="#F8F8F8"/>
</svg>
